<svg width="1440" height="352" viewBox="0 0 1440 352" fill="none" xmlns="http://www.w3.org/2000/svg">
<path d="M724.744 924.442H509.541V744.702C509.541 499.676 551.754 327.391 657.586 213.229C763.415 99.0708 932.97 42.9122 1187.96 30.4226C1341.89 22.9092 1531.71 -5.08978 1693.54 -77.2159C1855.37 -149.345 1989.27 -265.637 2031.18 -449.754C2032.74 -456.545 2034.21 -463.739 2035.72 -471.076C2036.29 -473.864 2036.87 -476.672 2037.46 -479.487C2097.75 -373.106 2132.46 -249.642 2132.46 -118.112V-118.029C2132.46 277.446 1819.24 601.063 1436.52 601.063H988.31H988.053L987.89 601.263L724.744 924.442Z" stroke="#67B3E4" stroke-width="1.08267"/>
<path d="M724.744 958.005H509.541V778.264C509.541 533.238 551.754 360.954 657.586 246.792C763.415 132.634 932.97 76.4749 1187.96 63.9853C1341.89 56.472 1531.71 28.473 1693.54 -43.6532C1855.37 -115.782 1989.27 -232.075 2031.18 -416.191C2032.74 -422.982 2034.21 -430.176 2035.72 -437.513C2036.29 -440.301 2036.87 -443.11 2037.46 -445.925C2097.75 -339.543 2132.46 -216.08 2132.46 -84.5493V-84.4662C2132.46 311.009 1819.24 634.626 1436.52 634.626H988.31H988.053L987.89 634.826L724.744 958.005Z" stroke="#67B3E4" stroke-width="1.08267"/>
<path d="M724.744 991.567H509.541V811.827C509.541 566.801 551.754 394.517 657.586 280.355C763.415 166.196 932.97 110.037 1187.96 97.5478C1341.89 90.0345 1531.71 62.0355 1693.54 -10.0907C1855.37 -82.2197 1989.27 -198.512 2031.18 -382.629C2032.74 -389.42 2034.21 -396.614 2035.72 -403.951C2036.29 -406.739 2036.87 -409.547 2037.46 -412.362C2097.75 -305.981 2132.46 -182.517 2132.46 -50.9868V-50.9037C2132.46 344.571 1819.24 668.189 1436.52 668.189H988.31H988.053L987.89 668.388L724.744 991.567Z" stroke="#67B3E4" stroke-width="1.08267"/>
<path d="M724.744 1025.13H509.541V845.39C509.541 600.364 551.754 428.079 657.586 313.917C763.415 199.759 932.97 143.6 1187.96 131.111C1341.89 123.597 1531.71 95.5982 1693.54 23.472C1855.37 -48.657 1989.27 -164.949 2031.18 -349.066C2032.74 -355.857 2034.21 -363.051 2035.72 -370.388C2036.29 -373.176 2036.87 -375.984 2037.46 -378.799C2097.75 -272.418 2132.46 -148.954 2132.46 -17.424V-17.341C2132.46 378.134 1819.24 701.751 1436.52 701.751H988.31H988.053L987.89 701.951L724.744 1025.13Z" stroke="#67B3E4" stroke-width="1.08267"/>
<path d="M724.744 1058.69H509.541V878.952C509.541 633.926 551.754 461.642 657.586 347.48C763.415 233.322 932.97 177.163 1187.96 164.673C1341.89 157.16 1531.71 129.161 1693.54 57.0348C1855.37 -15.0942 1989.27 -131.387 2031.18 -315.503C2032.74 -322.294 2034.21 -329.488 2035.72 -336.825C2036.29 -339.613 2036.87 -342.422 2037.46 -345.237C2097.75 -238.855 2132.46 -115.392 2132.46 16.1387V16.2217C2132.46 411.697 1819.24 735.314 1436.52 735.314H988.31H988.053L987.89 735.514L724.744 1058.69Z" stroke="#67B3E4" stroke-width="1.08267"/>
<path d="M724.744 1092.26H509.541V912.515C509.541 667.489 551.754 495.205 657.586 381.043C763.415 266.884 932.97 210.726 1187.96 198.236C1341.89 190.723 1531.71 162.724 1693.54 90.5975C1855.37 18.4685 1989.27 -97.8239 2031.18 -281.94C2032.74 -288.731 2034.21 -295.925 2035.72 -303.262C2036.29 -306.05 2036.87 -308.859 2037.46 -311.674C2097.75 -205.293 2132.46 -81.8289 2132.46 49.7015V49.7845C2132.46 445.259 1819.24 768.877 1436.52 768.877H988.31H988.053L987.89 769.077L724.744 1092.26Z" stroke="#67B3E4" stroke-width="1.08267"/>
<path d="M724.744 1125.82H509.541V946.078C509.541 701.052 551.754 528.767 657.586 414.605C763.415 300.447 932.97 244.288 1187.96 231.799C1341.89 224.285 1531.71 196.286 1693.54 124.16C1855.37 52.031 1989.27 -64.2614 2031.18 -248.378C2032.74 -255.169 2034.21 -262.363 2035.72 -269.7C2036.29 -272.488 2036.87 -275.296 2037.46 -278.111C2097.75 -171.73 2132.46 -48.2664 2132.46 83.264V83.347C2132.46 478.822 1819.24 802.439 1436.52 802.439H988.31H988.053L987.89 802.639L724.744 1125.82Z" stroke="#67B3E4" stroke-width="1.08267"/>
<path d="M724.744 1159.38H509.541V979.64C509.541 734.614 551.754 562.33 657.586 448.168C763.415 334.01 932.97 277.851 1187.96 265.361C1341.89 257.848 1531.71 229.849 1693.54 157.723C1855.37 85.5938 1989.27 -30.6986 2031.18 -214.815C2032.74 -221.606 2034.21 -228.8 2035.72 -236.137C2036.29 -238.925 2036.87 -241.734 2037.46 -244.549C2097.75 -138.167 2132.46 -14.7037 2132.46 116.827V116.91C2132.46 512.385 1819.24 836.002 1436.52 836.002H988.31H988.053L987.89 836.202L724.744 1159.38Z" stroke="#67B3E4" stroke-width="1.08267"/>
<path d="M724.744 1192.94H509.541V1013.2C509.541 768.177 551.754 595.893 657.586 481.731C763.415 367.572 932.97 311.414 1187.96 298.924C1341.89 291.411 1531.71 263.412 1693.54 191.286C1855.37 119.156 1989.27 2.86414 2031.18 -181.252C2032.74 -188.043 2034.21 -195.237 2035.72 -202.574C2036.29 -205.362 2036.87 -208.171 2037.46 -210.986C2097.75 -104.605 2132.46 18.8591 2132.46 150.389V150.472C2132.46 545.947 1819.24 869.565 1436.52 869.565H988.31H988.053L987.89 869.765L724.744 1192.94Z" stroke="#67B3E4" stroke-width="1.08267"/>
<path d="M724.744 1226.51H509.541V1046.77C509.541 801.74 551.754 629.455 657.586 515.293C763.415 401.135 932.97 344.976 1187.96 332.487C1341.89 324.973 1531.71 296.974 1693.54 224.848C1855.37 152.719 1989.27 36.4266 2031.18 -147.69C2032.74 -154.481 2034.21 -161.675 2035.72 -169.012C2036.29 -171.8 2036.87 -174.608 2037.46 -177.423C2097.75 -71.0422 2132.46 52.4216 2132.46 183.952V184.035C2132.46 579.51 1819.24 903.127 1436.52 903.127H988.31H988.053L987.89 903.327L724.744 1226.51Z" stroke="#67B3E4" stroke-width="1.08267"/>
</svg>
