<?xml version="1.0" encoding="UTF-8"?>
<!DOCTYPE svg PUBLIC "-//W3C//DTD SVG 1.1//EN" "http://www.w3.org/Graphics/SVG/1.1/DTD/svg11.dtd">
<!-- Creator: CorelDRAW 2020 (64-Bit) -->
<svg xmlns="http://www.w3.org/2000/svg" xml:space="preserve" width="197px" height="214px" version="1.1" style="shape-rendering:geometricPrecision; text-rendering:geometricPrecision; image-rendering:optimizeQuality; fill-rule:evenodd; clip-rule:evenodd"
viewBox="0 0 195.33 212.37"
 xmlns:xlink="http://www.w3.org/1999/xlink"
 xmlns:xodm="http://www.corel.com/coreldraw/odm/2003">
 <defs>
  <style type="text/css">
   <![CDATA[
    .fil2 {fill:#2A2C60}
    .fil0 {fill:url(#id0)}
    .fil1 {fill:url(#id1)}
   ]]>
  </style>
  <linearGradient id="id0" gradientUnits="userSpaceOnUse" x1="0" y1="81.74" x2="138.2" y2="81.24">
   <stop offset="0" style="stop-opacity:1; stop-color:#67B3E4"/>
   <stop offset="0.431373" style="stop-opacity:1; stop-color:#4970A2"/>
   <stop offset="1" style="stop-opacity:1; stop-color:#2A2C60"/>
  </linearGradient>
  <linearGradient id="id1" gradientUnits="userSpaceOnUse" x1="25.16" y1="75.42" x2="192.4" y2="75.42">
   <stop offset="0" style="stop-opacity:1; stop-color:#67B3E4"/>
   <stop offset="0.560784" style="stop-opacity:1; stop-color:#4970A2"/>
   <stop offset="1" style="stop-opacity:1; stop-color:#2A2C60"/>
  </linearGradient>
 </defs>
 <g id="Layer_x0020_1">
  <metadata id="CorelCorpID_0Corel-Layer"/>
  <g id="_2588374680944">
   <path class="fil0" d="M111.56 0c10.09,0 19.77,1.87 28.75,5.29 -41.32,54.59 -128.37,72 -140.31,187.17 0,-57.8 0,-134.66 0,-192.46l111.56 0z"/>
   <path class="fil1" d="M133.74 3.11c30.97,8.86 54.89,35.79 60.39,69.01 -0.5,0.44 -1,0.87 -1.52,1.31 -21.24,17.87 -64.64,35.93 -99.77,51.48 -35.14,15.55 -62,28.57 -73.52,39.67 -3.22,3.11 -5.24,6.07 -6.47,8.83l-2.69 0 0 24.98 -10.16 0 0 -27.37c-0.65,-70.24 69.31,-153.13 133.74,-167.91z"/>
   <path class="fil2" d="M81.66 104.53c37.02,-1.81 91.29,-13.49 101.36,-57.8 0.27,-1.18 0.52,-2.46 0.79,-3.75 7.31,12.86 11.52,27.8 11.52,43.72l0 0.01c0,47.68 -37.7,86.7 -83.77,86.7l-53.91 0 -31.67 38.96 -25.98 0 0 -21.72c0,-59.05 20.31,-83.11 81.66,-86.12z"/>
  </g>
 </g>
</svg>
