<svg width="56" height="56" viewBox="0 0 56 56" fill="none" xmlns="http://www.w3.org/2000/svg">
<rect width="56" height="56" rx="28" fill="#67B3E4"/>
<path d="M26.67 32.13L24.08 34.72C23.534 35.266 22.666 35.266 22.106 34.734C21.952 34.58 21.798 34.44 21.644 34.286C20.202 32.83 18.9 31.304 17.738 29.708C16.59 28.112 15.666 26.516 14.994 24.934C14.336 23.338 14 21.812 14 20.356C14 19.404 14.168 18.494 14.504 17.654C14.84 16.8 15.372 16.016 16.114 15.316C17.01 14.434 17.99 14 19.026 14C19.418 14 19.81 14.084 20.16 14.252C20.524 14.42 20.846 14.672 21.098 15.036L24.346 19.614C24.598 19.964 24.78 20.286 24.906 20.594C25.032 20.888 25.102 21.182 25.102 21.448C25.102 21.784 25.004 22.12 24.808 22.442C24.626 22.764 24.36 23.1 24.024 23.436L22.96 24.542C22.806 24.696 22.736 24.878 22.736 25.102C22.736 25.214 22.75 25.312 22.778 25.424C22.82 25.536 22.862 25.62 22.89 25.704C23.142 26.166 23.576 26.768 24.192 27.496C24.822 28.224 25.494 28.966 26.222 29.708C26.362 29.848 26.516 29.988 26.656 30.128C27.216 30.674 27.23 31.57 26.67 32.13Z" fill="white"/>
<path d="M41.9581 36.8621C41.9581 37.2541 41.8881 37.6601 41.7481 38.0521C41.7061 38.1641 41.6641 38.2761 41.6081 38.3881C41.3701 38.8921 41.0621 39.3681 40.6561 39.8161C39.9701 40.5721 39.2141 41.1181 38.3601 41.4681C38.3461 41.4681 38.3321 41.4821 38.3181 41.4821C37.4921 41.8181 36.5961 42.0001 35.6301 42.0001C34.2021 42.0001 32.6761 41.6641 31.0661 40.9781C29.4561 40.2921 27.8461 39.3681 26.2501 38.2061C25.7041 37.8001 25.1581 37.3941 24.6401 36.9601L29.2181 32.3821C29.6101 32.6761 29.9601 32.9001 30.2541 33.0541C30.3241 33.0821 30.4081 33.1241 30.5061 33.1661C30.6181 33.2081 30.7301 33.2221 30.8561 33.2221C31.0941 33.2221 31.2761 33.1381 31.4301 32.9841L32.4941 31.9341C32.8441 31.5841 33.1801 31.3181 33.5021 31.1501C33.8241 30.9541 34.1461 30.8561 34.4961 30.8561C34.7621 30.8561 35.0421 30.9121 35.3501 31.0381C35.6581 31.1641 35.9801 31.3461 36.3301 31.5841L40.9641 34.8741C41.3281 35.1261 41.5801 35.4201 41.7341 35.7701C41.8741 36.1201 41.9581 36.4701 41.9581 36.8621Z" fill="white"/>
</svg>
