<svg width="16" height="16" viewBox="0 0 16 16" fill="none" xmlns="http://www.w3.org/2000/svg">
<path d="M8.00016 1.33333C4.32683 1.33333 1.3335 4.32667 1.3335 8C1.3335 11.6733 4.32683 14.6667 8.00016 14.6667C11.6735 14.6667 14.6668 11.6733 14.6668 8C14.6668 4.32667 11.6735 1.33333 8.00016 1.33333ZM9.86016 8.35333L7.50683 10.7067C7.40683 10.8067 7.28016 10.8533 7.1535 10.8533C7.02683 10.8533 6.90016 10.8067 6.80016 10.7067C6.60683 10.5133 6.60683 10.1933 6.80016 10L8.80016 8L6.80016 6C6.60683 5.80667 6.60683 5.48667 6.80016 5.29333C6.9935 5.1 7.3135 5.1 7.50683 5.29333L9.86016 7.64667C10.0602 7.84 10.0602 8.16 9.86016 8.35333Z" fill="#2A2C60"/>
</svg>
