<svg class="brxe-icon" id="brxe-ablrnf" xmlns="http://www.w3.org/2000/svg" data-name="Layer 2" viewBox="0 0 56 56"><defs><style> .cls-1 { fill: #fff; } .cls-2 { fill: #67b3e4; } </style></defs><g id="Layer_1-2" data-name="Layer 1"><path class="cls-2" d="M28,0h0c15.46,0,28,12.54,28,28h0c0,15.46-12.54,28-28,28h0C12.54,56,0,43.46,0,28H0C0,12.54,12.54,0,28,0Z"></path><g><path class="cls-1" d="M49.46,28.69h0s-7.5-18.84-7.5-18.84c-.16-.4-.61-.6-1.01-.44,0,0,0,0,0,0h0S10.5,21.53,10.5,21.53c-.12,.05-.23,.14-.31,.25-.25,.13-.41,.39-.42,.68v20.29c0,.43,.35,.78,.78,.78H43.32c.43,0,.78-.35,.78-.78v-11.08l4.92-1.96c.4-.16,.6-.61,.44-1.01h0Zm-6.92,13.27H11.33V23.23h31.21v18.73ZM22.79,21.68l13.06-5.21c1.17,1.23,2.78,1.92,4.47,1.93l1.3,3.28H22.79Zm21.31,8.31v-7.53c0-.43-.35-.78-.78-.78h-.01l-1.65-4.15s-.04-.07-.06-.1c-.08-.38-.43-.63-.82-.6-1.57,.14-3.11-.52-4.09-1.76-.24-.3-.67-.37-1-.17-.04,0-.07,.01-.11,.02l-15.95,6.35c-.19,.08-.35,.23-.43,.42h-4.84l26.44-10.53,6.93,17.4-3.62,1.45Z"></path><path class="cls-1" d="M13.45,36.69c1.51,.45,2.7,1.63,3.15,3.15,.1,.33,.4,.56,.75,.56,.04,0,.08,0,.12-.02,.04,0,.07,.02,.11,.02h18.73s.06-.01,.1-.02c.39,.09,.78-.14,.88-.53h0c.45-1.52,1.63-2.71,3.15-3.15,.37-.11,.6-.48,.54-.86,.01-.04,.02-.08,.02-.12v-6.24s-.01-.08-.02-.12c.06-.38-.17-.75-.54-.86-1.52-.45-2.7-1.63-3.15-3.15-.11-.37-.48-.6-.86-.54-.04-.01-.07-.02-.11-.02H17.58s-.08,.01-.12,.02c-.38-.06-.75,.17-.86,.54-.45,1.52-1.63,2.7-3.15,3.15-.37,.11-.6,.48-.54,.86-.01,.04-.02,.08-.02,.12v6.24s.01,.07,.02,.11c-.06,.38,.16,.75,.54,.87Zm1-6.9c1.57-.63,2.81-1.87,3.44-3.44h18.09c.63,1.57,1.87,2.81,3.44,3.44v5.61c-1.57,.63-2.81,1.87-3.44,3.44H17.89c-.63-1.57-1.87-2.81-3.44-3.44v-5.61Z"></path><path class="cls-1" d="M26.94,37.28c2.59,0,4.68-2.1,4.68-4.68s-2.1-4.68-4.68-4.68-4.68,2.1-4.68,4.68c0,2.58,2.1,4.68,4.68,4.68Zm0-7.8c1.72,0,3.12,1.4,3.12,3.12s-1.4,3.12-3.12,3.12-3.12-1.4-3.12-3.12,1.4-3.12,3.12-3.12Zm-8.58,4.29c.65,0,1.17-.52,1.17-1.17s-.52-1.17-1.17-1.17-1.17,.52-1.17,1.17,.52,1.17,1.17,1.17Zm0-1.56c.22,0,.39,.17,.39,.39s-.17,.39-.39,.39-.39-.17-.39-.39,.17-.39,.39-.39Zm17.17,1.56c.65,0,1.17-.52,1.17-1.17s-.52-1.17-1.17-1.17-1.17,.52-1.17,1.17,.52,1.17,1.17,1.17Zm0-1.56c.22,0,.39,.17,.39,.39s-.17,.39-.39,.39-.39-.17-.39-.39,.17-.39,.39-.39Z"></path></g></g></svg>
