<svg width="56" height="56" viewBox="0 0 56 56" fill="none" xmlns="http://www.w3.org/2000/svg">
<rect width="56" height="56" rx="28" fill="#67B3E4"/>
<path d="M26.9503 36.75H23.8003C22.2603 36.75 21.0003 38.01 21.0003 39.55V39.9H19.6003C19.0263 39.9 18.5503 40.376 18.5503 40.95C18.5503 41.524 19.0263 42 19.6003 42H36.4003C36.9743 42 37.4503 41.524 37.4503 40.95C37.4503 40.376 36.9743 39.9 36.4003 39.9H35.0003V39.55C35.0003 38.01 33.7403 36.75 32.2003 36.75H29.0503V33.544C28.7003 33.586 28.3503 33.6 28.0003 33.6C27.6503 33.6 27.3003 33.586 26.9503 33.544V36.75Z" fill="white"/>
<path d="M37.0721 27.496C37.9961 27.146 38.8081 26.572 39.4521 25.928C40.7541 24.486 41.6081 22.764 41.6081 20.748C41.6081 18.732 40.0261 17.15 38.0101 17.15H37.2261C36.3161 15.288 34.4121 14 32.2001 14H23.8001C21.5881 14 19.6841 15.288 18.7741 17.15H17.9901C15.9741 17.15 14.3921 18.732 14.3921 20.748C14.3921 22.764 15.2461 24.486 16.5481 25.928C17.1921 26.572 18.0041 27.146 18.9281 27.496C20.3841 31.08 23.8841 33.6 28.0001 33.6C32.1161 33.6 35.6161 31.08 37.0721 27.496ZM31.9761 23.03L31.1081 24.094C30.9681 24.248 30.8701 24.556 30.8841 24.766L30.9681 26.138C31.0241 26.978 30.4221 27.412 29.6381 27.104L28.3641 26.6C28.1681 26.53 27.8321 26.53 27.6361 26.6L26.3621 27.104C25.5781 27.412 24.9761 26.978 25.0321 26.138L25.1161 24.766C25.1301 24.556 25.0321 24.248 24.8921 24.094L24.0241 23.03C23.4781 22.386 23.7161 21.672 24.5281 21.462L25.8581 21.126C26.0681 21.07 26.3201 20.874 26.4321 20.692L27.1741 19.544C27.6361 18.83 28.3641 18.83 28.8261 19.544L29.5681 20.692C29.6801 20.874 29.9321 21.07 30.1421 21.126L31.4721 21.462C32.2841 21.672 32.5221 22.386 31.9761 23.03Z" fill="white"/>
</svg>
