<svg width="56" height="56" viewBox="0 0 56 56" fill="none" xmlns="http://www.w3.org/2000/svg">
<rect width="56" height="56" rx="28" fill="#67B3E4"/>
<path d="M33.866 14H22.134C17.038 14 14 17.038 14 22.134V33.852C14 38.962 17.038 42 22.134 42H33.852C38.948 42 41.986 38.962 41.986 33.866V22.134C42 17.038 38.962 14 33.866 14ZM31.906 34.44C31.696 34.706 31.388 34.846 31.08 34.846C30.856 34.846 30.632 34.776 30.436 34.622C28.952 33.474 27.034 33.474 25.55 34.622C25.088 34.972 24.43 34.888 24.08 34.44C23.73 33.978 23.814 33.32 24.262 32.97C26.488 31.248 29.484 31.248 31.71 32.97C32.186 33.32 32.27 33.978 31.906 34.44ZM35 30.114C34.79 30.38 34.482 30.52 34.174 30.52C33.95 30.52 33.726 30.45 33.53 30.296C30.17 27.706 25.844 27.706 22.484 30.296C22.022 30.66 21.364 30.576 21 30.114C20.636 29.652 20.734 28.994 21.182 28.644C25.312 25.452 30.66 25.452 34.79 28.644C35.266 28.994 35.35 29.652 35 30.114ZM37.226 25.788C37.016 26.054 36.708 26.194 36.4 26.194C36.176 26.194 35.952 26.124 35.756 25.97C31.038 22.33 24.948 22.33 20.244 25.97C19.782 26.32 19.124 26.236 18.774 25.788C18.424 25.326 18.508 24.668 18.956 24.318C24.444 20.076 31.542 20.076 37.044 24.318C37.506 24.668 37.59 25.326 37.226 25.788Z" fill="white"/>
</svg>
