<svg width="203" height="60" viewBox="0 0 203 60" fill="none" xmlns="http://www.w3.org/2000/svg">
<rect width="202.5" height="60" rx="5" fill="#0D0D0D"/>
<path d="M102.204 32.6267C98.676 32.6267 95.8005 35.3102 95.8005 39.0062C95.8005 42.6797 98.676 45.3857 102.204 45.3857C105.733 45.3857 108.609 42.6797 108.609 39.0062C108.607 35.3102 105.732 32.6267 102.204 32.6267ZM102.204 42.8747C100.27 42.8747 98.604 41.2802 98.604 39.0077C98.604 36.7112 100.272 35.1407 102.204 35.1407C104.137 35.1407 105.804 36.7112 105.804 39.0077C105.804 41.2787 104.137 42.8747 102.204 42.8747ZM88.233 32.6267C84.705 32.6267 81.8295 35.3102 81.8295 39.0062C81.8295 42.6797 84.705 45.3857 88.233 45.3857C91.7625 45.3857 94.638 42.6797 94.638 39.0062C94.638 35.3102 91.7625 32.6267 88.233 32.6267ZM88.233 42.8747C86.2995 42.8747 84.633 41.2802 84.633 39.0077C84.633 36.7112 86.301 35.1407 88.233 35.1407C90.1665 35.1407 91.833 36.7112 91.833 39.0077C91.8345 41.2787 90.1665 42.8747 88.233 42.8747ZM71.616 34.5857V37.2917H78.093C77.8995 38.8142 77.3925 39.9257 76.6185 40.6982C75.6765 41.6402 74.202 42.6797 71.616 42.6797C67.629 42.6797 64.512 39.4652 64.512 35.4782C64.512 31.4912 67.629 28.2767 71.616 28.2767C73.767 28.2767 75.3375 29.1227 76.497 30.2102L78.4065 28.3007C76.7865 26.7542 74.637 25.5707 71.616 25.5707C66.1545 25.5707 61.563 30.0167 61.563 35.4782C61.563 40.9397 66.1545 45.3857 71.616 45.3857C74.5635 45.3857 76.788 44.4182 78.5265 42.6062C80.3145 40.8182 80.871 38.3042 80.871 36.2747C80.871 35.6477 80.823 35.0672 80.7255 34.5842H71.616V34.5857ZM139.578 36.6872C139.047 35.2622 137.427 32.6267 134.116 32.6267C130.83 32.6267 128.098 35.2127 128.098 39.0062C128.098 42.5822 130.806 45.3857 134.43 45.3857C137.353 45.3857 139.045 43.5977 139.747 42.5582L137.572 41.1077C136.848 42.1712 135.856 42.8717 134.43 42.8717C133.005 42.8717 131.989 42.2192 131.337 40.9382L139.867 37.4102L139.578 36.6872ZM130.878 38.8142C130.806 36.3482 132.787 35.0927 134.214 35.0927C135.325 35.0927 136.267 35.6492 136.582 36.4457L130.878 38.8142ZM123.943 45.0002H126.745V26.2487H123.943V45.0002ZM119.35 34.0532H119.254C118.626 33.3032 117.417 32.6267 115.896 32.6267C112.705 32.6267 109.782 35.4302 109.782 39.0317C109.782 42.6077 112.705 45.3872 115.896 45.3872C117.418 45.3872 118.626 44.7107 119.254 43.9382H119.35V44.8562C119.35 47.2967 118.045 48.6017 115.944 48.6017C114.228 48.6017 113.164 47.3702 112.729 46.3307L110.289 47.3462C110.989 49.0367 112.849 51.1157 115.944 51.1157C119.23 51.1157 122.01 49.1822 122.01 44.4692V33.0152H119.352V34.0532H119.35ZM116.137 42.8747C114.204 42.8747 112.585 41.2547 112.585 39.0317C112.585 36.7832 114.204 35.1407 116.137 35.1407C118.045 35.1407 119.544 36.7832 119.544 39.0317C119.544 41.2547 118.045 42.8747 116.137 42.8747ZM152.709 26.2487H146.002V45.0002H148.8V37.8962H152.707C155.809 37.8962 158.86 35.6507 158.86 32.0732C158.86 28.4957 155.811 26.2487 152.709 26.2487ZM152.781 35.2862H148.8V28.8587H152.781C154.873 28.8587 156.061 30.5912 156.061 32.0732C156.061 33.5252 154.873 35.2862 152.781 35.2862ZM170.079 32.5937C168.052 32.5937 165.954 33.4862 165.085 35.4647L167.569 36.5012C168.1 35.4647 169.09 35.1257 170.127 35.1257C171.574 35.1257 173.046 35.9942 173.07 37.5377V37.7312C172.563 37.4417 171.477 37.0082 170.151 37.0082C167.473 37.0082 164.746 38.4797 164.746 41.2292C164.746 43.7387 166.942 45.3542 169.402 45.3542C171.283 45.3542 172.321 44.5097 172.972 43.5197H173.068V44.9672H175.771V37.7777C175.773 34.4507 173.286 32.5937 170.079 32.5937ZM169.74 42.8702C168.825 42.8702 167.545 42.4112 167.545 41.2772C167.545 39.8297 169.138 39.2747 170.514 39.2747C171.742 39.2747 172.323 39.5402 173.07 39.9017C172.852 41.6402 171.357 42.8702 169.74 42.8702ZM185.614 33.0032L182.406 41.1332H182.31L178.98 33.0032H175.965L180.958 44.3657L178.111 50.6867H181.03L188.727 33.0032H185.614ZM160.405 45.0002H163.203V26.2487H160.405V45.0002Z" fill="white"/>
<path d="M71.1273 15.3644C71.1273 16.6214 70.7553 17.6219 70.0098 18.3689C69.1638 19.2569 68.0598 19.7009 66.7038 19.7009C65.4048 19.7009 64.2993 19.2509 63.3918 18.3509C62.4828 17.4494 62.0283 16.3334 62.0283 15.0014C62.0283 13.6679 62.4828 12.5519 63.3918 11.6519C64.2993 10.7504 65.4048 10.3004 66.7038 10.3004C67.3488 10.3004 67.9653 10.4264 68.5503 10.6769C69.1368 10.9289 69.6063 11.2634 69.9573 11.6819L69.1668 12.4739C68.5713 11.7614 67.7508 11.4059 66.7023 11.4059C65.7543 11.4059 64.9353 11.7389 64.2438 12.4049C63.5523 13.0709 63.2073 13.9364 63.2073 14.9999C63.2073 16.0634 63.5523 16.9289 64.2438 17.5949C64.9353 18.2609 65.7543 18.5939 66.7023 18.5939C67.7073 18.5939 68.5458 18.2594 69.2163 17.5889C69.6513 17.1524 69.9033 16.5449 69.9708 15.7664H66.7023V14.6849H71.0628C71.1078 14.9204 71.1273 15.1469 71.1273 15.3644Z" fill="white"/>
<path d="M78.0425 11.6055H73.9445V14.4585H77.6405V15.54H73.9445V18.393H78.0425V19.5H72.788V10.5H78.0425V11.6055Z" fill="white"/>
<path d="M82.9188 19.5H81.7623V11.6055H79.2483V10.5H85.4328V11.6055H82.9188V19.5Z" fill="white"/>
<path d="M89.9072 19.5V10.5H91.0637V19.5H89.9072Z" fill="white"/>
<path d="M96.1925 19.5H95.036V11.6055H92.522V10.5H98.7065V11.6055H96.1925V19.5Z" fill="white"/>
<path d="M110.414 18.3375C109.529 19.2465 108.429 19.701 107.114 19.701C105.798 19.701 104.699 19.2465 103.815 18.3375C102.93 17.4285 102.489 16.3155 102.489 15C102.489 13.6845 102.93 12.5715 103.815 11.6625C104.699 10.7535 105.798 10.2975 107.114 10.2975C108.422 10.2975 109.52 10.755 110.408 11.6685C111.296 12.582 111.74 13.692 111.74 15C111.74 16.3155 111.297 17.4285 110.414 18.3375ZM104.669 17.583C105.335 18.258 106.149 18.594 107.114 18.594C108.078 18.594 108.894 18.2565 109.559 17.583C110.225 16.908 110.559 16.047 110.559 15C110.559 13.953 110.225 13.092 109.559 12.417C108.894 11.742 108.078 11.406 107.114 11.406C106.149 11.406 105.335 11.7435 104.669 12.417C104.004 13.092 103.67 13.953 103.67 15C103.67 16.047 104.004 16.908 104.669 17.583Z" fill="white"/>
<path d="M113.363 19.5V10.5H114.77L119.144 17.5005H119.193L119.144 15.7665V10.5H120.3V19.5H119.093L114.516 12.159H114.467L114.516 13.893V19.5H113.363Z" fill="white"/>
<path d="M71.1273 15.3644C71.1273 16.6214 70.7553 17.6219 70.0098 18.3689C69.1638 19.2569 68.0598 19.7009 66.7038 19.7009C65.4048 19.7009 64.2993 19.2509 63.3918 18.3509C62.4828 17.4494 62.0283 16.3334 62.0283 15.0014C62.0283 13.6679 62.4828 12.5519 63.3918 11.6519C64.2993 10.7504 65.4048 10.3004 66.7038 10.3004C67.3488 10.3004 67.9653 10.4264 68.5503 10.6769C69.1368 10.9289 69.6063 11.2634 69.9573 11.6819L69.1668 12.4739C68.5713 11.7614 67.7508 11.4059 66.7023 11.4059C65.7543 11.4059 64.9353 11.7389 64.2438 12.4049C63.5523 13.0709 63.2073 13.9364 63.2073 14.9999C63.2073 16.0634 63.5523 16.9289 64.2438 17.5949C64.9353 18.2609 65.7543 18.5939 66.7023 18.5939C67.7073 18.5939 68.5458 18.2594 69.2163 17.5889C69.6513 17.1524 69.9033 16.5449 69.9708 15.7664H66.7023V14.6849H71.0628C71.1078 14.9204 71.1273 15.1469 71.1273 15.3644Z" stroke="white" stroke-width="0.2" stroke-miterlimit="10"/>
<path d="M78.0425 11.6055H73.9445V14.4585H77.6405V15.54H73.9445V18.393H78.0425V19.5H72.788V10.5H78.0425V11.6055Z" stroke="white" stroke-width="0.2" stroke-miterlimit="10"/>
<path d="M82.9188 19.5H81.7623V11.6055H79.2483V10.5H85.4328V11.6055H82.9188V19.5Z" stroke="white" stroke-width="0.2" stroke-miterlimit="10"/>
<path d="M89.9072 19.5V10.5H91.0637V19.5H89.9072Z" stroke="white" stroke-width="0.2" stroke-miterlimit="10"/>
<path d="M96.1925 19.5H95.036V11.6055H92.522V10.5H98.7065V11.6055H96.1925V19.5Z" stroke="white" stroke-width="0.2" stroke-miterlimit="10"/>
<path d="M110.414 18.3375C109.529 19.2465 108.429 19.701 107.114 19.701C105.798 19.701 104.699 19.2465 103.815 18.3375C102.93 17.4285 102.489 16.3155 102.489 15C102.489 13.6845 102.93 12.5715 103.815 11.6625C104.699 10.7535 105.798 10.2975 107.114 10.2975C108.422 10.2975 109.52 10.755 110.408 11.6685C111.296 12.582 111.74 13.692 111.74 15C111.74 16.3155 111.297 17.4285 110.414 18.3375ZM104.669 17.583C105.335 18.258 106.149 18.594 107.114 18.594C108.078 18.594 108.894 18.2565 109.559 17.583C110.225 16.908 110.559 16.047 110.559 15C110.559 13.953 110.225 13.092 109.559 12.417C108.894 11.742 108.078 11.406 107.114 11.406C106.149 11.406 105.335 11.7435 104.669 12.417C104.004 13.092 103.67 13.953 103.67 15C103.67 16.047 104.004 16.908 104.669 17.583Z" stroke="white" stroke-width="0.2" stroke-miterlimit="10"/>
<path d="M113.363 19.5V10.5H114.77L119.144 17.5005H119.193L119.144 15.7665V10.5H120.3V19.5H119.093L114.516 12.159H114.467L114.516 13.893V19.5H113.363Z" stroke="white" stroke-width="0.2" stroke-miterlimit="10"/>
<g filter="url(#filter0_ii_2233_1751)">
<path d="M15.654 11.307C15.2175 11.769 14.9595 12.486 14.9595 13.4145V46.5885C14.9595 47.5185 15.2175 48.234 15.654 48.696L15.765 48.804L34.3485 30.2205V30.0015V29.7825L15.765 11.1975L15.654 11.307Z" fill="url(#paint0_linear_2233_1751)"/>
<path d="M40.5421 36.417L34.3486 30.2205V30.0015V29.7825L40.5436 23.5875L40.6831 23.667L48.0226 27.837C50.1181 29.028 50.1181 30.9765 48.0226 32.169L40.6831 36.339L40.5421 36.417Z" fill="url(#paint1_linear_2233_1751)"/>
<g filter="url(#filter1_i_2233_1751)">
<path d="M40.6828 36.3376L34.3468 30.0016L15.6538 48.6961C16.3438 49.4281 17.4853 49.5181 18.7708 48.7891L40.6828 36.3376Z" fill="url(#paint2_linear_2233_1751)"/>
</g>
<path d="M40.6828 23.6655L18.7708 11.2155C17.4853 10.485 16.3438 10.5765 15.6538 11.3085L34.3483 30.003L40.6828 23.6655Z" fill="url(#paint3_linear_2233_1751)"/>
</g>
<defs>
<filter id="filter0_ii_2233_1751" x="14.9595" y="10.7114" width="34.6348" height="38.5812" filterUnits="userSpaceOnUse" color-interpolation-filters="sRGB">
<feFlood flood-opacity="0" result="BackgroundImageFix"/>
<feBlend mode="normal" in="SourceGraphic" in2="BackgroundImageFix" result="shape"/>
<feColorMatrix in="SourceAlpha" type="matrix" values="0 0 0 0 0 0 0 0 0 0 0 0 0 0 0 0 0 0 127 0" result="hardAlpha"/>
<feOffset dy="-0.15"/>
<feComposite in2="hardAlpha" operator="arithmetic" k2="-1" k3="1"/>
<feColorMatrix type="matrix" values="0 0 0 0 0 0 0 0 0 0 0 0 0 0 0 0 0 0 0.12 0"/>
<feBlend mode="normal" in2="shape" result="effect1_innerShadow_2233_1751"/>
<feColorMatrix in="SourceAlpha" type="matrix" values="0 0 0 0 0 0 0 0 0 0 0 0 0 0 0 0 0 0 127 0" result="hardAlpha"/>
<feOffset dy="0.15"/>
<feComposite in2="hardAlpha" operator="arithmetic" k2="-1" k3="1"/>
<feColorMatrix type="matrix" values="0 0 0 0 1 0 0 0 0 1 0 0 0 0 1 0 0 0 0.25 0"/>
<feBlend mode="normal" in2="effect1_innerShadow_2233_1751" result="effect2_innerShadow_2233_1751"/>
</filter>
<filter id="filter1_i_2233_1751" x="15.6538" y="30.0016" width="25.0288" height="19.291" filterUnits="userSpaceOnUse" color-interpolation-filters="sRGB">
<feFlood flood-opacity="0" result="BackgroundImageFix"/>
<feBlend mode="normal" in="SourceGraphic" in2="BackgroundImageFix" result="shape"/>
<feColorMatrix in="SourceAlpha" type="matrix" values="0 0 0 0 0 0 0 0 0 0 0 0 0 0 0 0 0 0 127 0" result="hardAlpha"/>
<feOffset dy="-0.15"/>
<feComposite in2="hardAlpha" operator="arithmetic" k2="-1" k3="1"/>
<feColorMatrix type="matrix" values="0 0 0 0 0 0 0 0 0 0 0 0 0 0 0 0 0 0 0.08 0"/>
<feBlend mode="normal" in2="shape" result="effect1_innerShadow_2233_1751"/>
</filter>
<linearGradient id="paint0_linear_2233_1751" x1="32.7012" y1="13.0635" x2="7.52818" y2="38.2365" gradientUnits="userSpaceOnUse">
<stop stop-color="#00A0FF"/>
<stop offset="0.0066" stop-color="#00A1FF"/>
<stop offset="0.2601" stop-color="#00BEFF"/>
<stop offset="0.5122" stop-color="#00D2FF"/>
<stop offset="0.7604" stop-color="#00DFFF"/>
<stop offset="1" stop-color="#00E3FF"/>
</linearGradient>
<linearGradient id="paint1_linear_2233_1751" x1="50.7504" y1="30.0015" x2="14.4565" y2="30.0015" gradientUnits="userSpaceOnUse">
<stop stop-color="#FFE000"/>
<stop offset="0.4087" stop-color="#FFBD00"/>
<stop offset="0.7754" stop-color="#FFA500"/>
<stop offset="1" stop-color="#FF9C00"/>
</linearGradient>
<linearGradient id="paint2_linear_2233_1751" x1="37.242" y1="33.4424" x2="3.10422" y2="67.5802" gradientUnits="userSpaceOnUse">
<stop stop-color="#FF3A44"/>
<stop offset="1" stop-color="#C31162"/>
</linearGradient>
<linearGradient id="paint3_linear_2233_1751" x1="10.9459" y1="0.265239" x2="26.1894" y2="15.5087" gradientUnits="userSpaceOnUse">
<stop stop-color="#32A071"/>
<stop offset="0.0685" stop-color="#2DA771"/>
<stop offset="0.4762" stop-color="#15CF74"/>
<stop offset="0.8009" stop-color="#06E775"/>
<stop offset="1" stop-color="#00F076"/>
</linearGradient>
</defs>
</svg>
