<svg width="56" height="56" viewBox="0 0 56 56" fill="none" xmlns="http://www.w3.org/2000/svg">
<rect width="56" height="56" rx="28" fill="#67B3E4"/>
<path d="M34.7624 33.096C35.7004 32.48 36.9324 33.152 36.9324 34.272V36.078C36.9324 37.856 35.5464 39.76 33.8804 40.32L29.4144 41.804C28.6304 42.07 27.3564 42.07 26.5864 41.804L22.1204 40.32C20.4404 39.76 19.0684 37.856 19.0684 36.078V34.258C19.0684 33.152 20.3004 32.48 21.2244 33.082L24.1084 34.958C25.2144 35.7 26.6144 36.064 28.0144 36.064C29.4144 36.064 30.8144 35.7 31.9204 34.958L34.7624 33.096Z" fill="white"/>
<path d="M39.1724 20.244L30.7864 14.742C29.2744 13.748 26.7824 13.748 25.2704 14.742L16.8424 20.244C14.1404 21.994 14.1404 25.956 16.8424 27.72L19.0824 29.176L25.2704 33.208C26.7824 34.202 29.2744 34.202 30.7864 33.208L36.9324 29.176L38.8504 27.916V32.2C38.8504 32.774 39.3264 33.25 39.9004 33.25C40.4744 33.25 40.9504 32.774 40.9504 32.2V25.312C41.5104 23.506 40.9364 21.406 39.1724 20.244Z" fill="white"/>
</svg>
