<svg width="56" height="56" viewBox="0 0 56 56" fill="none" xmlns="http://www.w3.org/2000/svg">
<rect width="56" height="56" rx="28" fill="#67B3E4"/>
<path d="M36.9375 24.3964C36.6057 23.597 35.8623 23.1 34.9971 23.1L30.9973 23.198L33.3997 17.6316C33.6811 16.9806 33.6153 16.2372 33.2261 15.6464C32.8369 15.0542 32.1803 14.7 31.4719 14.7H25.2C24.0268 14.7 23.0538 15.4336 22.673 16.5802L19.0092 25.935C18.7922 26.5832 18.8971 27.272 19.2975 27.8264C19.6979 28.3808 20.3182 28.7 21.0028 28.7L24.9563 28.6076L20.9173 40.3732C20.8123 40.6812 20.9327 41.0214 21.2085 41.1936C21.3233 41.265 21.4508 41.3 21.5796 41.3C21.7602 41.3 21.9394 41.23 22.0752 41.0956L36.4839 26.6854C37.0944 26.0736 37.2679 25.1958 36.9375 24.3964ZM35.4927 25.6956L23.2245 37.9666L26.2807 29.0626C26.4193 28.6566 26.3535 28.2058 26.1043 27.8572C25.8551 27.5086 25.4505 27.3014 25.0221 27.3014H21.0028C20.7746 27.3014 20.5659 27.195 20.4329 27.0102C20.2999 26.8254 20.265 26.5958 20.3252 26.4138L23.989 17.0576C24.192 16.4486 24.6329 16.1 25.2013 16.1H31.4719C31.7113 16.1 31.9241 16.2148 32.0557 16.415C32.1873 16.6152 32.2084 16.8574 32.1146 17.0772L29.7122 22.6436C29.5358 23.0566 29.5764 23.527 29.8228 23.9008C30.0692 24.2746 30.4849 24.5 30.9329 24.5H34.9971C35.4311 24.5 35.602 24.8304 35.644 24.9326C35.686 25.0334 35.7993 25.3876 35.4927 25.6956Z" fill="white"/>
<path d="M35.4927 25.6956L23.2245 37.9666L26.2807 29.0626C26.4193 28.6566 26.3535 28.2058 26.1043 27.8572C25.8551 27.5086 25.4505 27.3014 25.0221 27.3014H21.0028C20.7746 27.3014 20.5659 27.195 20.4329 27.0102C20.2999 26.8254 20.265 26.5958 20.3252 26.4138L23.989 17.0576C24.192 16.4486 24.6329 16.1 25.2013 16.1H31.4719C31.7113 16.1 31.9241 16.2148 32.0557 16.415C32.1873 16.6152 32.2084 16.8574 32.1146 17.0772L29.7122 22.6436C29.5358 23.0566 29.5764 23.527 29.8228 23.9008C30.0692 24.2746 30.4849 24.5 30.9329 24.5H34.9971C35.4311 24.5 35.602 24.8304 35.644 24.9326C35.686 25.0334 35.7993 25.3876 35.4927 25.6956Z" fill="white"/>
</svg>
