<svg width="56" height="56" viewBox="0 0 56 56" fill="none" xmlns="http://www.w3.org/2000/svg">
<rect width="56" height="56" rx="28" fill="#67B3E4"/>
<path d="M27.958 14C20.23 14 13.958 20.272 13.958 28C13.958 35.728 20.23 42 27.958 42C35.686 42 41.958 35.728 41.958 28C41.958 20.272 35.7 14 27.958 14ZM35.56 34.202C33.838 36.68 31.01 38.15 28 38.15C24.99 38.15 22.162 36.68 20.44 34.202C20.104 33.726 20.23 33.068 20.706 32.746C21.182 32.41 21.84 32.536 22.162 33.012C23.492 34.916 25.676 36.064 28 36.064C30.324 36.064 32.508 34.93 33.838 33.012C34.174 32.536 34.818 32.424 35.294 32.746C35.784 33.068 35.896 33.726 35.56 34.202Z" fill="white"/>
</svg>
