<svg width="56" height="56" viewBox="0 0 56 56" fill="none" xmlns="http://www.w3.org/2000/svg">
<rect width="56" height="56" rx="28" fill="#67B3E4"/>
<path d="M32.508 20.37H19.292C18.9 20.37 18.536 20.384 18.2 20.398C14.882 20.594 14 21.812 14 25.592V26.404C14 27.174 14.63 27.804 15.4 27.804H36.4C37.17 27.804 37.8 27.174 37.8 26.404V25.592C37.8 21.42 36.736 20.37 32.508 20.37Z" fill="white"/>
<path d="M15.4 29.904C14.63 29.904 14 30.534 14 31.304V35.378C14 39.55 15.064 40.6 19.292 40.6H32.508C36.666 40.6 37.758 39.592 37.8 35.602V31.304C37.8 30.534 37.17 29.904 36.4 29.904H15.4ZM20.944 37.184H18.55C17.976 37.184 17.5 36.708 17.5 36.134C17.5 35.56 17.976 35.084 18.55 35.084H20.958C21.532 35.084 22.008 35.56 22.008 36.134C22.008 36.708 21.532 37.184 20.944 37.184ZM28.77 37.184H23.954C23.38 37.184 22.904 36.708 22.904 36.134C22.904 35.56 23.38 35.084 23.954 35.084H28.77C29.344 35.084 29.82 35.56 29.82 36.134C29.82 36.708 29.358 37.184 28.77 37.184Z" fill="white"/>
<path d="M42.0001 29.862V22.526C42.0001 18.144 39.4941 16.24 35.7141 16.24H23.2121C22.1481 16.24 21.1961 16.394 20.3561 16.716C19.6981 16.954 19.1101 17.304 18.6341 17.766C18.3821 18.004 18.5781 18.396 18.9421 18.396H34.1601C37.3101 18.396 39.8581 20.944 39.8581 24.094V34.132C39.8581 34.482 40.2361 34.678 40.4881 34.426C41.4541 33.404 42.0001 31.906 42.0001 29.862Z" fill="white"/>
</svg>
